<svg width="58" height="57" viewBox="0 0 58 57" fill="none" xmlns="http://www.w3.org/2000/svg">
<g clip-path="url(#clip0_25_71)" filter="url(#filter0_d_25_71)">
<path d="M12.8542 0H45.1458C50.0417 0 54 3.97863 54 8.89957V40.1004C54 45.0214 50.0417 49 45.1458 49H12.8542C7.95833 49 4 45.0214 4 40.1004V8.89957C4 3.97863 7.95833 0 12.8542 0Z" fill="#330000"/>
<path d="M28.1666 29.3162H20.4166L18.8333 34.2371C18.7916 34.4256 18.625 34.5513 18.4375 34.5303H14.5208C14.2916 34.5303 14.2291 34.4047 14.2916 34.1534L21 14.7419C21.0625 14.5324 21.125 14.3021 21.2083 14.0508C21.2916 13.6111 21.3333 13.1504 21.3333 12.6897C21.3125 12.585 21.3958 12.4803 21.5 12.4594H26.8958C27.0625 12.4594 27.1458 12.5222 27.1666 12.6269L34.7708 34.1953C34.8333 34.4256 34.7708 34.5303 34.5625 34.5303H30.2083C30.0625 34.5513 29.9166 34.4466 29.875 34.3L28.1666 29.3162ZM21.625 25.0654H26.9166C26.7916 24.6256 26.625 24.1021 26.4375 23.5577C26.25 22.9923 26.0625 22.385 25.875 21.7568C25.6666 21.1077 25.4791 20.4795 25.2708 19.8303C25.0625 19.1812 24.875 18.5739 24.7083 17.9666C24.5416 17.3803 24.3958 16.8359 24.25 16.3333H24.2083C24.0208 17.2337 23.7916 18.1342 23.5 19.0346C23.1875 20.0397 22.875 21.0867 22.5416 22.1337C22.25 23.2017 21.9375 24.1859 21.625 25.0654ZM39.4166 16.1239C38.7291 16.1448 38.0625 15.8726 37.5625 15.391C37.0833 14.8675 36.8333 14.1765 36.8541 13.4645C36.8333 12.7525 37.1041 12.0824 37.6041 11.6008C38.1041 11.1192 38.7708 10.8679 39.4583 10.8679C40.2708 10.8679 40.8958 11.1192 41.3541 11.6008C41.8125 12.1034 42.0625 12.7735 42.0416 13.4645C42.0625 14.1765 41.8125 14.8675 41.3125 15.391C40.8333 15.8936 40.125 16.1658 39.4166 16.1239ZM37.0833 34.3V18.176C37.0833 17.9666 37.1666 17.8829 37.3541 17.8829H41.4791C41.6666 17.8829 41.75 17.9876 41.75 18.176V34.3C41.75 34.5303 41.6666 34.635 41.4791 34.635H37.3958C37.1875 34.635 37.0833 34.5094 37.0833 34.3Z" fill="#FF9A00"/>
</g>
<defs>
<filter id="filter0_d_25_71" x="0" y="0" width="58" height="57" filterUnits="userSpaceOnUse" color-interpolation-filters="sRGB">
<feFlood flood-opacity="0" result="BackgroundImageFix"/>
<feColorMatrix in="SourceAlpha" type="matrix" values="0 0 0 0 0 0 0 0 0 0 0 0 0 0 0 0 0 0 127 0" result="hardAlpha"/>
<feOffset dy="4"/>
<feGaussianBlur stdDeviation="2"/>
<feComposite in2="hardAlpha" operator="out"/>
<feColorMatrix type="matrix" values="0 0 0 0 0 0 0 0 0 0 0 0 0 0 0 0 0 0 0.25 0"/>
<feBlend mode="normal" in2="BackgroundImageFix" result="effect1_dropShadow_25_71"/>
<feBlend mode="normal" in="SourceGraphic" in2="effect1_dropShadow_25_71" result="shape"/>
</filter>
<clipPath id="clip0_25_71">
<rect width="50" height="49" fill="white" transform="translate(4)"/>
</clipPath>
</defs>
</svg>
