<svg width="46" height="48" viewBox="0 0 46 48" fill="none" xmlns="http://www.w3.org/2000/svg">
<g clip-path="url(#clip0_16_72)">
<path fill-rule="evenodd" clip-rule="evenodd" d="M21.672 0.320916C22.4939 -0.105507 23.5059 -0.105507 24.3267 0.320916C28.388 2.42841 40.6094 8.77216 44.6719 10.8797C45.4939 11.305 45.9999 12.0929 45.9999 12.9457C45.9999 17.1607 45.9999 29.8471 45.9999 34.0621C45.9999 34.9149 45.4939 35.7029 44.6719 36.1293C40.6106 38.2368 28.3892 44.5805 24.3267 46.688C23.5047 47.1145 22.4927 47.1145 21.672 46.688C17.6107 44.5805 5.38925 38.2368 1.32673 36.1293C0.505999 35.7029 0 34.9161 0 34.0632C0 29.8482 0 17.1618 0 12.9469C0 12.094 0.505999 11.3061 1.32794 10.8797C5.38804 8.77216 17.6119 2.42841 21.672 0.320916Z" fill="#004482"/>
<path fill-rule="evenodd" clip-rule="evenodd" d="M0.367999 35.1483C0.0459999 34.7499 0 34.3716 0 33.8624C0 29.672 0 17.0584 0 12.8669C0 12.0185 0.504788 11.2351 1.32431 10.812C5.37109 8.71681 17.5514 2.41 21.5982 0.313697C22.4177 -0.110488 23.5277 -0.101534 24.3473 0.322651C28.394 2.41783 40.5332 8.67092 44.58 10.7661C44.9068 10.9362 45.1562 11.141 45.3789 11.4108L0.367999 35.1483Z" fill="#659AD2"/>
<path fill-rule="evenodd" clip-rule="evenodd" d="M23.0001 7.83484C32.3538 7.83484 39.9474 14.8557 39.9474 23.5039C39.9474 32.1522 32.3538 39.173 23.0001 39.173C13.6463 39.173 6.05273 32.1522 6.05273 23.5039C6.05273 14.8557 13.6463 7.83484 23.0001 7.83484ZM23.0001 15.6694C27.6763 15.6694 31.4737 19.1793 31.4737 23.5039C31.4737 27.8275 27.6763 31.3385 23.0001 31.3385C18.3238 31.3385 14.5264 27.8275 14.5264 23.5039C14.5264 19.1793 18.3226 15.6694 23.0001 15.6694Z" fill="white"/>
<path fill-rule="evenodd" clip-rule="evenodd" d="M45.3765 11.422C46.0012 11.9626 45.9891 12.7774 45.9891 13.4187C45.9891 17.6661 45.9503 29.747 46 33.9945C46.0048 34.4377 45.8462 34.9044 45.609 35.2558L22.5073 23.504L45.3765 11.422Z" fill="#00599C"/>
</g>
<defs>
<clipPath id="clip0_16_72">
<rect width="46" height="47.0073" fill="white"/>
</clipPath>
</defs>
</svg>
