<svg width="146" height="37" viewBox="0 0 146 37" fill="none" xmlns="http://www.w3.org/2000/svg">
<g clip-path="url(#clip0_16_57)">
<path d="M35.2917 0.0309448V28.4405L39.2738 28.4544V14.932H48.8947V11.353H39.2738V3.60999H51.7977V0.0309448H35.2917ZM58.9867 5.7964C60.4306 5.7964 61.5857 4.72408 61.5857 3.41502C61.5857 2.10595 60.4154 1.03363 58.9867 1.03363C57.5428 1.03363 56.3877 2.10595 56.3877 3.41502C56.3877 4.72408 57.558 5.7964 58.9867 5.7964ZM56.9653 9.37545V28.4405H60.9474V9.37545H56.9653Z" fill="white"/>
<path fill-rule="evenodd" clip-rule="evenodd" d="M75.7357 8.81818C70.4314 8.81818 66.738 12.9264 66.738 17.8006C66.738 22.6748 70.4314 26.783 75.7357 26.783C78.1676 26.783 80.1586 25.9196 81.6177 24.527V27.0476C81.6177 30.2089 78.9123 32.8409 75.371 32.8409C74.0943 32.8409 72.8328 32.3953 71.8296 31.7547L69.8234 34.9299C71.4193 35.8768 73.3191 36.42 75.3558 36.42C81.0097 36.42 85.5846 32.2282 85.5846 27.0476V9.37523H81.6177V11.0742C80.1586 9.6816 78.1676 8.81818 75.7357 8.81818ZM70.7353 17.8006C70.7353 14.7786 73.2583 12.3972 76.1765 12.3972C79.0947 12.3972 81.6177 14.7786 81.6177 17.8006C81.6177 20.8226 79.0947 23.204 76.1765 23.204C73.2583 23.204 70.7353 20.8226 70.7353 17.8006Z" fill="white"/>
<path d="M99.9778 12.3972C97.622 12.3972 95.7069 14.2355 95.7069 16.394V28.4402H91.7249V9.37523H95.7069V11.116C96.8773 9.73731 98.5947 8.81818 100.844 8.81818C103.641 8.81818 105.784 10.0855 107.03 12.0351C108.413 10.1551 110.663 8.81818 113.383 8.81818C117.928 8.81818 120.755 12.1744 120.77 16.3244V28.4402H116.788V16.3801C116.788 14.2216 114.873 12.3833 112.517 12.3833C110.161 12.3833 108.246 14.2216 108.246 16.3801V28.4402H104.264V16.3801C104.249 14.2216 102.334 12.3972 99.9778 12.3972Z" fill="white"/>
<path fill-rule="evenodd" clip-rule="evenodd" d="M142.018 11.5338C140.24 9.84872 137.808 8.81818 134.996 8.81818C129.069 8.81818 124.843 13.4278 124.843 18.9147C124.843 24.4016 129.053 29.0112 134.996 29.0112C137.808 29.0112 140.24 27.9668 142.018 26.2956V28.4402H146V9.37523H142.018V11.5338ZM128.841 18.9147C128.841 15.28 131.88 12.3972 135.437 12.3972C138.978 12.3972 142.033 15.266 142.033 18.9147C142.033 22.5494 138.993 25.4322 135.437 25.4322C131.88 25.4182 128.841 22.5494 128.841 18.9147Z" fill="white"/>
<path d="M13.3901 18.4412C13.3901 15.0571 16.3843 12.2997 20.0928 12.2997C23.7861 12.2997 26.7955 15.0432 26.7955 18.4412C26.7955 21.8253 23.8013 24.5827 20.0928 24.5827C16.3995 24.5827 13.3901 21.8253 13.3901 18.4412Z" fill="#1ABCFE"/>
<path d="M0 30.7102C0 27.3261 2.99417 24.5687 6.70268 24.5687H13.4054V30.7102C13.4054 34.0943 10.4112 36.8517 6.70268 36.8517C2.99417 36.8517 0 34.1082 0 30.7102Z" fill="#0ACF83"/>
<path d="M13.3901 0.030833V12.2998H20.0928C23.7861 12.2998 26.7955 9.55638 26.7955 6.15838C26.7955 2.7743 23.8013 0.0169067 20.0928 0.0169067H13.3901V0.030833Z" fill="#FF7262"/>
<path d="M0 6.17241C0 9.55649 2.99417 12.3139 6.70268 12.3139H13.4054V0.0309448H6.70268C2.99417 0.0309448 0 2.77441 0 6.17241Z" fill="#F24E1E"/>
<path d="M0 18.4412C0 21.8253 2.99417 24.5827 6.70268 24.5827H13.4054V12.2997H6.70268C2.99417 12.2997 0 15.0571 0 18.4412Z" fill="#A259FF"/>
</g>
<defs>
<clipPath id="clip0_16_57">
<rect width="146" height="36.8685" fill="white"/>
</clipPath>
</defs>
</svg>
