<svg width="66" height="61" viewBox="0 0 66 61" fill="none" xmlns="http://www.w3.org/2000/svg">
<g clip-path="url(#clip0_16_114)">
<path d="M13.9734 0H16.9382V2.70897H19.671V0H22.6359V8.1982H19.671V5.46547H16.964V8.1982H13.9734M26.5546 2.73273H23.9378V0H32.1492V2.73273H29.5195V8.1982H26.5546M33.4511 0H36.5578L38.4656 2.88719L40.3734 0H43.48V8.1982H40.5152V4.13475L38.4398 7.08134L36.3644 4.13475V8.1982H33.4511M44.9496 0H47.9144V5.48923H52.1167V8.1982H44.9496" fill="white"/>
<path d="M13.8704 55.9616L9.61646 11.9528H56.3836L52.1297 55.9379L32.9614 60.833" fill="#E44D26"/>
<path d="M33 57.0904V15.5647H52.1168L48.4688 53.1101" fill="#F16529"/>
<path d="M18.3047 20.947H33V26.3412H24.7242L25.2656 31.8661H33V37.2484H19.9031M20.1609 39.9573H26.0391L26.4516 44.2703L33 45.8862V51.518L20.9859 48.4288" fill="#EBEBEB"/>
<path d="M47.6437 20.947H32.9741V26.3412H47.1022M46.5737 31.8661H32.9741V37.2603H40.1929L39.5097 44.2703L32.9741 45.8862V51.4942L44.9624 48.4288" fill="white"/>
</g>
<defs>
<clipPath id="clip0_16_114">
<rect width="66" height="60.833" fill="white"/>
</clipPath>
</defs>
</svg>
