<svg width="51" height="48" viewBox="0 0 51 48" fill="none" xmlns="http://www.w3.org/2000/svg">
<g clip-path="url(#clip0_16_69)">
<path d="M51 0H0V47.0073H51V0Z" fill="#F7DF1E"/>
<path d="M34.2591 36.7247C35.2864 38.2707 36.6229 39.4071 38.9868 39.4071C40.9725 39.4071 42.241 38.4923 42.241 37.2284C42.241 35.7137 40.9377 35.1772 38.752 34.296L37.5539 33.8222C34.0956 32.4642 31.7982 30.763 31.7982 27.1665C31.7982 23.8536 34.5368 21.3317 38.8168 21.3317C41.8638 21.3317 44.0544 22.3091 45.6329 24.8684L41.901 27.077C41.0794 25.719 40.1929 25.184 38.8168 25.184C37.413 25.184 36.5234 26.0048 36.5234 27.077C36.5234 28.4022 37.4138 28.9386 39.47 29.7594L40.6681 30.2325C44.74 31.8419 47.0391 33.4827 47.0391 37.1716C47.0391 41.1486 43.6496 43.3274 39.0977 43.3274C34.6469 43.3274 31.7715 41.3725 30.3645 38.8102L34.2591 36.7247ZM17.3296 37.1075C18.0824 38.3386 18.7673 39.3795 20.4138 39.3795C21.9884 39.3795 22.9817 38.8117 22.9817 36.6038V21.5839H27.774V36.6635C27.774 41.2374 24.8646 43.3192 20.6178 43.3192C16.7807 43.3192 14.5586 41.4889 13.4285 39.2844L17.3296 37.1075Z" fill="black"/>
</g>
<defs>
<clipPath id="clip0_16_69">
<rect width="51" height="47.0073" fill="white"/>
</clipPath>
</defs>
</svg>
