<svg width="80" height="40" viewBox="0 0 80 40" fill="none" xmlns="http://www.w3.org/2000/svg">
<g clip-path="url(#clip0_16_77)">
<mask id="mask0_16_77" style="mask-type:luminance" maskUnits="userSpaceOnUse" x="1" y="1" width="78" height="38">
<path d="M1.125 19.8169C1.125 30.1907 18.5303 38.6005 40.0001 38.6005C61.4698 38.6005 78.8753 30.1907 78.8753 19.8169C78.8753 9.44318 61.4698 1.03325 40.0001 1.03325C18.5303 1.03325 1.125 9.44318 1.125 19.8169Z" fill="white"/>
</mask>
<g mask="url(#mask0_16_77)">
<path d="M1.125 19.8169C1.125 30.1907 18.5303 38.6005 40.0001 38.6005C61.4698 38.6005 78.8753 30.1907 78.8753 19.8169C78.8753 9.44318 61.4698 1.03325 40.0001 1.03325C18.5303 1.03325 1.125 9.44318 1.125 19.8169Z" fill="url(#paint0_radial_16_77)"/>
</g>
<mask id="mask1_16_77" style="mask-type:luminance" maskUnits="userSpaceOnUse" x="-1" y="-2" width="82" height="43">
<path d="M-0.494873 -1.10564H80.4949V40.7393H-0.494873V-1.10564Z" fill="white"/>
</mask>
<g mask="url(#mask1_16_77)">
<path d="M40.0001 37.2058C60.6312 37.2058 77.3566 29.4205 77.3566 19.8168C77.3566 10.2132 60.6312 2.42773 40.0001 2.42773C19.3689 2.42773 2.64355 10.2132 2.64355 19.8168C2.64355 29.4205 19.3689 37.2058 40.0001 37.2058Z" fill="#777BB3"/>
</g>
<mask id="mask2_16_77" style="mask-type:luminance" maskUnits="userSpaceOnUse" x="-1" y="-2" width="82" height="43">
<path d="M-0.494873 -1.10564H80.4949V40.7393H-0.494873V-1.10564Z" fill="white"/>
</mask>
<g mask="url(#mask2_16_77)">
<path d="M22.2461 21.9728C23.9425 21.9728 25.209 21.6854 26.0103 21.119C26.803 20.5583 27.3506 19.587 27.6375 18.2321C27.9051 16.9656 27.8032 16.0813 27.3347 15.6041C26.8556 15.1167 25.8199 14.8695 24.2564 14.8695H21.5453L20.0424 21.9728H22.2461ZM13.379 30.7228C13.2531 30.7228 13.1336 30.6711 13.0536 30.5817C12.9735 30.4925 12.941 30.375 12.965 30.2615L16.9482 11.4375C16.9867 11.2556 17.1603 11.1241 17.3622 11.1241H25.9469C28.6448 11.1241 30.653 11.797 31.9152 13.1243C33.1842 14.4585 33.5761 16.3236 33.0799 18.6676C32.878 19.6225 32.5307 20.5094 32.0477 21.3034C31.5641 22.0983 30.9251 22.8338 30.1479 23.4899C29.2177 24.2896 28.1648 24.8695 27.0214 25.2107C25.8961 25.5474 24.451 25.7182 22.7261 25.7182H19.25L18.2573 30.4092C18.2188 30.5913 18.0453 30.7228 17.8434 30.7228H13.379Z" fill="black"/>
<path d="M21.893 15.2569H24.2563C26.1434 15.2569 26.7989 15.6372 27.0216 15.8639C27.3912 16.2402 27.4609 17.0337 27.2234 18.1585C26.9565 19.4177 26.4619 20.3106 25.7529 20.8119C25.0271 21.3252 23.8472 21.5853 22.2461 21.5853H20.554L21.893 15.2569ZM25.9468 10.7366H17.3621C16.9583 10.7366 16.6111 10.9995 16.534 11.3636L12.5509 30.1875C12.5028 30.4147 12.5678 30.6496 12.7279 30.8282C12.8882 31.0068 13.127 31.1102 13.379 31.1102H17.8432C18.2472 31.1102 18.5944 30.8472 18.6714 30.4831L19.5977 26.1056H22.7261C24.4952 26.1056 25.9845 25.9284 27.1523 25.579C28.3532 25.2206 29.4581 24.613 30.436 23.773C31.2448 23.0895 31.911 22.3223 32.4158 21.4925C32.9207 20.6625 33.2834 19.7369 33.4939 18.7414C34.0163 16.2741 33.5919 14.2983 32.2328 12.8694C30.8869 11.4541 28.7719 10.7366 25.9468 10.7366ZM19.5305 22.3602H22.2461C24.046 22.3602 25.3867 22.0488 26.2676 21.4259C27.1486 20.8029 27.7428 19.7631 28.0516 18.306C28.347 16.907 28.2125 15.9198 27.6479 15.3447C27.0827 14.7696 25.9523 14.482 24.2563 14.482H21.1976L19.5305 22.3602ZM25.9468 11.5115C28.5294 11.5115 30.4134 12.134 31.5976 13.3791C32.7816 14.6243 33.1382 16.3623 32.6658 18.5936C32.4713 19.5128 32.1424 20.3532 31.6794 21.1145C31.2158 21.8764 30.6105 22.573 29.8625 23.2047C28.971 23.971 27.9807 24.517 26.891 24.8422C25.8013 25.1683 24.4134 25.3307 22.7261 25.3307H18.9021L17.8432 30.3353H13.379L17.3621 11.5115H25.9468Z" fill="white"/>
<path d="M43.3157 25.7182C43.1897 25.7182 43.0704 25.6665 42.9904 25.5772C42.9101 25.4879 42.8776 25.3705 42.9016 25.2569L44.6636 16.928C44.8312 16.136 44.7899 15.5674 44.5473 15.3272C44.3988 15.1804 43.9528 14.9341 42.6341 14.9341H39.442L37.2267 25.4046C37.1882 25.5867 37.0146 25.7182 36.8126 25.7182H32.3835C32.2575 25.7182 32.1382 25.6665 32.058 25.5772C31.9779 25.4879 31.9454 25.3704 31.9694 25.2569L35.9525 6.43296C35.9911 6.25099 36.1647 6.11951 36.3666 6.11951H40.7958C40.9217 6.11951 41.0411 6.17118 41.1213 6.26042C41.2014 6.34979 41.2339 6.46719 41.2099 6.58084L40.2487 11.1241H43.6826C46.2986 11.1241 48.0725 11.5477 49.1056 12.4192C50.1588 13.3083 50.4874 14.7299 50.0824 16.6449L48.2292 25.4046C48.1907 25.5867 48.0172 25.7182 47.8152 25.7182H43.3157Z" fill="black"/>
<path d="M40.796 5.732H36.3669C35.9629 5.732 35.6157 5.99495 35.5387 6.35903L31.5556 25.1829C31.5075 25.4101 31.5724 25.645 31.7327 25.8237C31.893 26.0023 32.1318 26.1056 32.3837 26.1056H36.8129C37.2167 26.1056 37.564 25.8426 37.641 25.4786L39.7899 15.3215H42.6343C43.9508 15.3215 44.2271 15.5798 44.2382 15.5909C44.318 15.6698 44.4231 16.0353 44.2497 16.8541L42.4878 25.1829C42.4397 25.4101 42.5046 25.645 42.6649 25.8237C42.8252 26.0023 43.064 26.1056 43.3159 26.1056H47.8154C48.2192 26.1056 48.5665 25.8426 48.6435 25.4786L50.4966 16.7189C50.9315 14.6627 50.5595 13.1202 49.3913 12.134C48.2766 11.1937 46.4093 10.7366 43.6828 10.7366H40.7604L41.6242 6.65479C41.6721 6.42761 41.6073 6.19255 41.447 6.01407C41.2867 5.83545 41.0479 5.732 40.796 5.732ZM40.796 6.50691L39.7371 11.5115H43.6828C46.1655 11.5115 47.8779 11.9096 48.8204 12.7046C49.7629 13.5002 50.0453 14.7892 49.6686 16.5711L47.8154 25.3307H43.3159L45.0779 17.002C45.2784 16.0545 45.2047 15.4083 44.8566 15.0637C44.5083 14.7191 43.7674 14.5466 42.6343 14.5466H39.0943L36.8129 25.3307H32.3837L36.3669 6.50691H40.796Z" fill="white"/>
<path d="M57.0906 21.9728C58.787 21.9728 60.0534 21.6854 60.8548 21.119C61.6475 20.5585 62.195 19.5871 62.4821 18.2321C62.7497 16.9656 62.6478 16.0813 62.1791 15.6041C61.7001 15.1167 60.6644 14.8695 59.1008 14.8695H56.3898L54.8868 21.9728H57.0906ZM48.2236 30.7228C48.0977 30.7228 47.9782 30.6711 47.8982 30.5817C47.8181 30.4925 47.7855 30.375 47.8095 30.2615L51.7926 11.4375C51.8313 11.2556 52.0048 11.1241 52.2068 11.1241H60.7913C63.4894 11.1241 65.4975 11.797 66.7598 13.1243C68.0288 14.4584 68.4205 16.3235 67.9245 18.6676C67.7223 19.6225 67.3751 20.5094 66.8921 21.3034C66.4086 22.0983 65.7695 22.8338 64.9924 23.4899C64.0621 24.2896 63.0093 24.8695 61.8659 25.2107C60.7406 25.5474 59.2954 25.7182 57.5706 25.7182H54.0944L53.1021 30.4092C53.0634 30.5913 52.8899 30.7228 52.6879 30.7228H48.2236Z" fill="black"/>
<path d="M56.7376 15.2569H59.1009C60.988 15.2569 61.6435 15.6372 61.8662 15.8639C62.2359 16.2402 62.3056 17.0337 62.068 18.1584C61.8011 19.4177 61.3063 20.3106 60.5975 20.8119C59.8717 21.3252 58.6917 21.5853 57.0906 21.5853H55.3987L56.7376 15.2569ZM60.7914 10.7366H52.2068C51.803 10.7366 51.4558 10.9995 51.3788 11.3636L47.3956 30.1875C47.3476 30.4147 47.4125 30.6496 47.5727 30.8282C47.733 31.0068 47.9717 31.1102 48.2237 31.1102H52.688C53.0918 31.1102 53.4391 30.8472 53.5161 30.4831L54.4423 26.1056H57.5707C59.3398 26.1056 60.8291 25.9284 61.9969 25.579C63.1978 25.2206 64.303 24.6128 65.2809 23.7727C66.0896 23.0894 66.7556 22.3223 67.2603 21.4925C67.7653 20.6625 68.128 19.7369 68.3385 18.7414C68.8609 16.2739 68.4365 14.2982 67.0774 12.8693C65.7315 11.4541 63.6166 10.7366 60.7914 10.7366ZM54.3752 22.3602H57.0906C58.8906 22.3602 60.2313 22.0488 61.1122 21.4259C61.9933 20.8029 62.5874 19.7631 62.8962 18.306C63.1917 16.907 63.0572 15.9198 62.4925 15.3447C61.9273 14.7696 60.7969 14.482 59.1009 14.482H56.0421L54.3752 22.3602ZM60.7914 11.5115C63.374 11.5115 65.258 12.134 66.4422 13.3791C67.6263 14.6243 67.9828 16.3623 67.5103 18.5936C67.3159 19.5128 66.987 20.3532 66.524 21.1145C66.0604 21.8764 65.4551 22.573 64.7071 23.2047C63.8156 23.971 62.8253 24.517 61.7356 24.8422C60.6459 25.1683 59.258 25.3307 57.5707 25.3307H53.7467L52.688 30.3353H48.2237L52.2068 11.5115H60.7914Z" fill="white"/>
</g>
</g>
<defs>
<radialGradient id="paint0_radial_16_77" cx="0" cy="0" r="1" gradientUnits="userSpaceOnUse" gradientTransform="translate(24.4658 7.63699) scale(51.0485 46.8893)">
<stop stop-color="#AEB2D5"/>
<stop offset="0.3" stop-color="#AEB2D5"/>
<stop offset="0.75" stop-color="#484C89"/>
<stop offset="1" stop-color="#484C89"/>
</radialGradient>
<clipPath id="clip0_16_77">
<rect width="80" height="39.6336" fill="white"/>
</clipPath>
</defs>
</svg>
