<svg width="56" height="55" viewBox="0 0 56 55" fill="none" xmlns="http://www.w3.org/2000/svg">
<g clip-path="url(#clip0_25_74)" filter="url(#filter0_d_25_74)">
<path d="M12.5 0H43.5C48.2 0 52 3.81624 52 8.53632V38.4637C52 43.1838 48.2 47 43.5 47H12.5C7.8 47 4 43.1838 4 38.4637V8.53632C4 3.81624 7.8 0 12.5 0Z" fill="#001E36"/>
<path d="M14.8 32.9603V12.2923C14.8 12.1517 14.86 12.0714 15 12.0714C15.34 12.0714 15.66 12.0714 16.12 12.0513C16.6 12.0312 17.1 12.0312 17.64 12.0111C18.18 11.991 18.76 11.991 19.38 11.971C20 11.9509 20.6 11.9509 21.2 11.9509C22.84 11.9509 24.2 12.1517 25.32 12.5735C26.32 12.915 27.2401 13.4774 28 14.2205C28.64 14.8633 29.1401 15.6466 29.4601 16.5103C29.7601 17.3539 29.9201 18.2175 29.9201 19.1214C29.9201 20.8487 29.5201 22.2748 28.72 23.3996C27.92 24.5244 26.8 25.368 25.5 25.85C24.14 26.3521 22.64 26.5329 21 26.5329C20.52 26.5329 20.2 26.5329 20 26.5128C19.8 26.4927 19.52 26.4927 19.14 26.4927V32.9402C19.16 33.0808 19.06 33.2013 18.92 33.2214C18.9 33.2214 18.88 33.2214 18.84 33.2214H15.04C14.88 33.2214 14.8 33.141 14.8 32.9603ZM19.16 15.9479V22.6966C19.44 22.7167 19.7 22.7368 19.94 22.7368H21C21.78 22.7368 22.56 22.6163 23.3 22.3752C23.9401 22.1945 24.5 21.8128 24.94 21.3107C25.36 20.8086 25.5601 20.1257 25.5601 19.2419C25.5801 18.6192 25.42 17.9966 25.1 17.4543C24.76 16.9321 24.28 16.5304 23.7 16.3094C22.96 16.0081 22.16 15.8876 21.34 15.9077C20.82 15.9077 20.36 15.9077 19.98 15.9278C19.58 15.9077 19.3 15.9278 19.16 15.9479Z" fill="#31A8FF"/>
<path d="M42.4002 21.4714C41.8002 21.15 41.1602 20.9291 40.4802 20.7885C39.7402 20.6278 39.0002 20.5274 38.2402 20.5274C37.8402 20.5073 37.4202 20.5675 37.0402 20.668C36.7802 20.7282 36.5602 20.8688 36.4202 21.0697C36.3202 21.2304 36.2602 21.4312 36.2602 21.612C36.2602 21.7928 36.3402 21.9735 36.4602 22.1342C36.6402 22.3551 36.8802 22.5359 37.1402 22.6765C37.6002 22.9175 38.0802 23.1385 38.5602 23.3393C39.6402 23.7009 40.6802 24.203 41.6402 24.8056C42.3002 25.2274 42.8402 25.7898 43.2202 26.4727C43.5402 27.1154 43.7002 27.8184 43.6802 28.5415C43.7002 29.4855 43.4202 30.4295 42.9002 31.2128C42.3402 32.0163 41.5602 32.6389 40.6602 33.0004C39.6802 33.4222 38.4802 33.6432 37.0402 33.6432C36.1202 33.6432 35.2202 33.5628 34.3202 33.3821C33.6202 33.2616 32.9202 33.0406 32.2802 32.7393C32.1402 32.659 32.0402 32.5184 32.0602 32.3577V28.8628C32.0602 28.8026 32.0802 28.7222 32.1402 28.6821C32.2002 28.6419 32.2602 28.662 32.3202 28.7022C33.1002 29.1641 33.9202 29.4855 34.8002 29.6863C35.5602 29.8872 36.3602 29.9876 37.1602 29.9876C37.9202 29.9876 38.4602 29.8872 38.8202 29.7064C39.1402 29.5658 39.3602 29.2244 39.3602 28.8628C39.3602 28.5816 39.2002 28.3205 38.8802 28.0594C38.5602 27.7983 37.9002 27.497 36.9202 27.1154C35.9002 26.7539 34.9602 26.2718 34.0802 25.6692C33.4602 25.2274 32.9402 24.6449 32.5602 23.962C32.2402 23.3192 32.0802 22.6163 32.1002 21.9133C32.1002 21.0496 32.3402 20.2261 32.7802 19.4829C33.2802 18.6795 34.0202 18.0368 34.8802 17.6351C35.8202 17.153 37.0002 16.9321 38.4202 16.9321C39.2402 16.9321 40.0802 16.9923 40.9002 17.1128C41.5002 17.1932 42.0802 17.3539 42.6202 17.5748C42.7002 17.5949 42.7802 17.6752 42.8202 17.7556C42.8402 17.8359 42.8602 17.9163 42.8602 17.9966V21.2705C42.8602 21.3509 42.8202 21.4312 42.7602 21.4714C42.5802 21.5116 42.4802 21.5116 42.4002 21.4714Z" fill="#31A8FF"/>
</g>
<defs>
<filter id="filter0_d_25_74" x="0" y="0" width="56" height="55" filterUnits="userSpaceOnUse" color-interpolation-filters="sRGB">
<feFlood flood-opacity="0" result="BackgroundImageFix"/>
<feColorMatrix in="SourceAlpha" type="matrix" values="0 0 0 0 0 0 0 0 0 0 0 0 0 0 0 0 0 0 127 0" result="hardAlpha"/>
<feOffset dy="4"/>
<feGaussianBlur stdDeviation="2"/>
<feComposite in2="hardAlpha" operator="out"/>
<feColorMatrix type="matrix" values="0 0 0 0 0 0 0 0 0 0 0 0 0 0 0 0 0 0 0.25 0"/>
<feBlend mode="normal" in2="BackgroundImageFix" result="effect1_dropShadow_25_74"/>
<feBlend mode="normal" in="SourceGraphic" in2="effect1_dropShadow_25_74" result="shape"/>
</filter>
<clipPath id="clip0_25_74">
<rect width="48" height="47" fill="white" transform="translate(4)"/>
</clipPath>
</defs>
</svg>
