<svg width="80" height="15" viewBox="0 0 80 15" fill="none" xmlns="http://www.w3.org/2000/svg">
<path d="M6.76367 8.90771H9.60254C9.60807 9.81527 9.43099 10.59 9.07129 11.2319C8.71712 11.8683 8.21631 12.3498 7.56885 12.6763C6.92139 13.0028 6.16325 13.166 5.29443 13.166C4.59163 13.166 3.96908 13.0443 3.42676 12.8008C2.88444 12.5573 2.4279 12.2031 2.05713 11.7383C1.68636 11.2734 1.4069 10.7118 1.21875 10.0532C1.0306 9.38916 0.936523 8.63656 0.936523 7.79541V6.11035C0.936523 5.27474 1.03613 4.5249 1.23535 3.86084C1.4401 3.19678 1.72786 2.63232 2.09863 2.16748C2.47493 1.70264 2.92871 1.34847 3.45996 1.10498C3.99674 0.861491 4.5944 0.739746 5.25293 0.739746C6.17708 0.739746 6.95736 0.914062 7.59375 1.2627C8.23568 1.60579 8.72819 2.10384 9.07129 2.75684C9.41439 3.4043 9.59701 4.1818 9.61914 5.08936H6.78027C6.80794 4.56364 6.77474 4.15137 6.68066 3.85254C6.58659 3.54818 6.42057 3.33512 6.18262 3.21338C5.9502 3.0861 5.6403 3.02246 5.25293 3.02246C4.9873 3.02246 4.76318 3.07503 4.58057 3.18018C4.39795 3.28532 4.2513 3.45964 4.14062 3.70312C4.02995 3.94108 3.94971 4.25651 3.8999 4.64941C3.8501 5.04232 3.8252 5.52376 3.8252 6.09375V7.79541C3.8252 8.37646 3.84456 8.86344 3.8833 9.25635C3.92204 9.64925 3.99398 9.96745 4.09912 10.2109C4.2098 10.4489 4.35921 10.6204 4.54736 10.7256C4.74105 10.8307 4.99007 10.8833 5.29443 10.8833C5.6154 10.8833 5.88932 10.8307 6.11621 10.7256C6.3431 10.6149 6.51465 10.4185 6.63086 10.1362C6.74707 9.84847 6.79134 9.43896 6.76367 8.90771ZM15.936 9.7876C15.936 9.59945 15.9167 9.43066 15.8779 9.28125C15.8447 9.1263 15.7756 8.98242 15.6704 8.84961C15.5708 8.7168 15.4186 8.58398 15.2139 8.45117C15.0091 8.31283 14.7352 8.16895 14.3921 8.01953C13.9604 7.84245 13.5371 7.64323 13.1221 7.42188C12.707 7.19499 12.3335 6.93213 12.0015 6.6333C11.675 6.32894 11.4121 5.97477 11.2129 5.5708C11.0137 5.1613 10.9141 4.68538 10.9141 4.14307C10.9141 3.62288 11.0137 3.15527 11.2129 2.74023C11.4176 2.31966 11.6971 1.96273 12.0513 1.66943C12.411 1.37061 12.8343 1.14372 13.3213 0.98877C13.8083 0.828288 14.3395 0.748047 14.915 0.748047C15.6787 0.748047 16.3511 0.902995 16.9321 1.21289C17.5187 1.51725 17.9753 1.95166 18.3018 2.51611C18.6338 3.07503 18.7998 3.73633 18.7998 4.5H15.9692C15.9692 4.19564 15.9305 3.92725 15.853 3.69482C15.7756 3.4624 15.6538 3.27979 15.4878 3.14697C15.3273 3.01416 15.1143 2.94775 14.8486 2.94775C14.6107 2.94775 14.4087 3.00309 14.2427 3.11377C14.0822 3.22445 13.9604 3.37386 13.8774 3.56201C13.7944 3.74463 13.7529 3.94661 13.7529 4.16797C13.7529 4.35059 13.7944 4.5166 13.8774 4.66602C13.9604 4.8099 14.0739 4.94548 14.2178 5.07275C14.3672 5.20003 14.5387 5.32178 14.7324 5.43799C14.9316 5.5542 15.1447 5.66764 15.3716 5.77832C15.9194 5.98307 16.4036 6.21273 16.8242 6.46729C17.2503 6.71631 17.6073 7.0013 17.895 7.32227C18.1828 7.6377 18.3986 7.9974 18.5425 8.40137C18.6919 8.80534 18.7666 9.26188 18.7666 9.771C18.7666 10.3133 18.6781 10.7948 18.501 11.2153C18.3294 11.6359 18.0776 11.9928 17.7456 12.2861C17.4136 12.5739 17.0124 12.7925 16.542 12.9419C16.0771 13.0913 15.5514 13.166 14.9648 13.166C14.4281 13.166 13.8996 13.0885 13.3794 12.9336C12.8647 12.7731 12.3971 12.5296 11.9766 12.2031C11.5615 11.8711 11.2295 11.4478 10.9805 10.9331C10.7314 10.4129 10.6069 9.7959 10.6069 9.08203H13.4624C13.4624 9.4362 13.4901 9.73503 13.5454 9.97852C13.6007 10.222 13.6865 10.4185 13.8027 10.5679C13.9245 10.7118 14.0794 10.8169 14.2676 10.8833C14.4557 10.9442 14.6882 10.9746 14.9648 10.9746C15.2194 10.9746 15.4159 10.922 15.5542 10.8169C15.6981 10.7062 15.7977 10.5623 15.853 10.3853C15.9084 10.2026 15.936 10.0034 15.936 9.7876ZM25.2993 9.7876C25.2993 9.59945 25.2799 9.43066 25.2412 9.28125C25.208 9.1263 25.1388 8.98242 25.0337 8.84961C24.9341 8.7168 24.7819 8.58398 24.5771 8.45117C24.3724 8.31283 24.0985 8.16895 23.7554 8.01953C23.3237 7.84245 22.9004 7.64323 22.4854 7.42188C22.0703 7.19499 21.6968 6.93213 21.3647 6.6333C21.0382 6.32894 20.7754 5.97477 20.5762 5.5708C20.377 5.1613 20.2773 4.68538 20.2773 4.14307C20.2773 3.62288 20.377 3.15527 20.5762 2.74023C20.7809 2.31966 21.0604 1.96273 21.4146 1.66943C21.7743 1.37061 22.1976 1.14372 22.6846 0.98877C23.1715 0.828288 23.7028 0.748047 24.2783 0.748047C25.042 0.748047 25.7144 0.902995 26.2954 1.21289C26.882 1.51725 27.3385 1.95166 27.665 2.51611C27.9971 3.07503 28.1631 3.73633 28.1631 4.5H25.3325C25.3325 4.19564 25.2938 3.92725 25.2163 3.69482C25.1388 3.4624 25.0171 3.27979 24.8511 3.14697C24.6906 3.01416 24.4775 2.94775 24.2119 2.94775C23.974 2.94775 23.772 3.00309 23.606 3.11377C23.4455 3.22445 23.3237 3.37386 23.2407 3.56201C23.1577 3.74463 23.1162 3.94661 23.1162 4.16797C23.1162 4.35059 23.1577 4.5166 23.2407 4.66602C23.3237 4.8099 23.4372 4.94548 23.5811 5.07275C23.7305 5.20003 23.902 5.32178 24.0957 5.43799C24.2949 5.5542 24.508 5.66764 24.7349 5.77832C25.2827 5.98307 25.7669 6.21273 26.1875 6.46729C26.6136 6.71631 26.9705 7.0013 27.2583 7.32227C27.5461 7.6377 27.7619 7.9974 27.9058 8.40137C28.0552 8.80534 28.1299 9.26188 28.1299 9.771C28.1299 10.3133 28.0413 10.7948 27.8643 11.2153C27.6927 11.6359 27.4409 11.9928 27.1089 12.2861C26.7769 12.5739 26.3757 12.7925 25.9053 12.9419C25.4404 13.0913 24.9147 13.166 24.3281 13.166C23.7913 13.166 23.2629 13.0885 22.7427 12.9336C22.228 12.7731 21.7604 12.5296 21.3398 12.2031C20.9248 11.8711 20.5928 11.4478 20.3438 10.9331C20.0947 10.4129 19.9702 9.7959 19.9702 9.08203H22.8257C22.8257 9.4362 22.8534 9.73503 22.9087 9.97852C22.964 10.222 23.0498 10.4185 23.166 10.5679C23.2878 10.7118 23.4427 10.8169 23.6309 10.8833C23.819 10.9442 24.0514 10.9746 24.3281 10.9746C24.5827 10.9746 24.7791 10.922 24.9175 10.8169C25.0614 10.7062 25.161 10.5623 25.2163 10.3853C25.2716 10.2026 25.2993 10.0034 25.2993 9.7876ZM37.792 0.914062L34.4634 14.0376H32.5542L35.8828 0.914062H37.792ZM47.7612 9.7876C47.7612 9.59945 47.7419 9.43066 47.7031 9.28125C47.6699 9.1263 47.6007 8.98242 47.4956 8.84961C47.396 8.7168 47.2438 8.58398 47.0391 8.45117C46.8343 8.31283 46.5604 8.16895 46.2173 8.01953C45.7856 7.84245 45.3623 7.64323 44.9473 7.42188C44.5322 7.19499 44.1587 6.93213 43.8267 6.6333C43.5002 6.32894 43.2373 5.97477 43.0381 5.5708C42.8389 5.1613 42.7393 4.68538 42.7393 4.14307C42.7393 3.62288 42.8389 3.15527 43.0381 2.74023C43.2428 2.31966 43.5223 1.96273 43.8765 1.66943C44.2362 1.37061 44.6595 1.14372 45.1465 0.98877C45.6335 0.828288 46.1647 0.748047 46.7402 0.748047C47.5039 0.748047 48.1763 0.902995 48.7573 1.21289C49.3439 1.51725 49.8005 1.95166 50.127 2.51611C50.459 3.07503 50.625 3.73633 50.625 4.5H47.7944C47.7944 4.19564 47.7557 3.92725 47.6782 3.69482C47.6007 3.4624 47.479 3.27979 47.313 3.14697C47.1525 3.01416 46.9395 2.94775 46.6738 2.94775C46.4359 2.94775 46.2339 3.00309 46.0679 3.11377C45.9074 3.22445 45.7856 3.37386 45.7026 3.56201C45.6196 3.74463 45.5781 3.94661 45.5781 4.16797C45.5781 4.35059 45.6196 4.5166 45.7026 4.66602C45.7856 4.8099 45.8991 4.94548 46.043 5.07275C46.1924 5.20003 46.3639 5.32178 46.5576 5.43799C46.7568 5.5542 46.9699 5.66764 47.1968 5.77832C47.7446 5.98307 48.2288 6.21273 48.6494 6.46729C49.0755 6.71631 49.4325 7.0013 49.7202 7.32227C50.008 7.6377 50.2238 7.9974 50.3677 8.40137C50.5171 8.80534 50.5918 9.26188 50.5918 9.771C50.5918 10.3133 50.5033 10.7948 50.3262 11.2153C50.1546 11.6359 49.9028 11.9928 49.5708 12.2861C49.2388 12.5739 48.8376 12.7925 48.3672 12.9419C47.9023 13.0913 47.3766 13.166 46.79 13.166C46.2533 13.166 45.7248 13.0885 45.2046 12.9336C44.6899 12.7731 44.2223 12.5296 43.8018 12.2031C43.3867 11.8711 43.0547 11.4478 42.8057 10.9331C42.5566 10.4129 42.4321 9.7959 42.4321 9.08203H45.2876C45.2876 9.4362 45.3153 9.73503 45.3706 9.97852C45.4259 10.222 45.5117 10.4185 45.6279 10.5679C45.7497 10.7118 45.9046 10.8169 46.0928 10.8833C46.2809 10.9442 46.5133 10.9746 46.79 10.9746C47.0446 10.9746 47.241 10.922 47.3794 10.8169C47.5233 10.7062 47.6229 10.5623 47.6782 10.3853C47.7336 10.2026 47.7612 10.0034 47.7612 9.7876ZM57.6807 8.90771H60.5195C60.5251 9.81527 60.348 10.59 59.9883 11.2319C59.6341 11.8683 59.1333 12.3498 58.4858 12.6763C57.8384 13.0028 57.0802 13.166 56.2114 13.166C55.5086 13.166 54.8861 13.0443 54.3438 12.8008C53.8014 12.5573 53.3449 12.2031 52.9741 11.7383C52.6034 11.2734 52.3239 10.7118 52.1357 10.0532C51.9476 9.38916 51.8535 8.63656 51.8535 7.79541V6.11035C51.8535 5.27474 51.9531 4.5249 52.1523 3.86084C52.3571 3.19678 52.6449 2.63232 53.0156 2.16748C53.3919 1.70264 53.8457 1.34847 54.377 1.10498C54.9137 0.861491 55.5114 0.739746 56.1699 0.739746C57.0941 0.739746 57.8743 0.914062 58.5107 1.2627C59.1527 1.60579 59.6452 2.10384 59.9883 2.75684C60.3314 3.4043 60.514 4.1818 60.5361 5.08936H57.6973C57.7249 4.56364 57.6917 4.15137 57.5977 3.85254C57.5036 3.54818 57.3376 3.33512 57.0996 3.21338C56.8672 3.0861 56.5573 3.02246 56.1699 3.02246C55.9043 3.02246 55.6802 3.07503 55.4976 3.18018C55.3149 3.28532 55.1683 3.45964 55.0576 3.70312C54.9469 3.94108 54.8667 4.25651 54.8169 4.64941C54.7671 5.04232 54.7422 5.52376 54.7422 6.09375V7.79541C54.7422 8.37646 54.7616 8.86344 54.8003 9.25635C54.839 9.64925 54.911 9.96745 55.0161 10.2109C55.1268 10.4489 55.2762 10.6204 55.4644 10.7256C55.658 10.8307 55.9071 10.8833 56.2114 10.8833C56.5324 10.8833 56.8063 10.8307 57.0332 10.7256C57.2601 10.6149 57.4316 10.4185 57.5479 10.1362C57.6641 9.84847 57.7083 9.43896 57.6807 8.90771ZM66.853 9.7876C66.853 9.59945 66.8337 9.43066 66.7949 9.28125C66.7617 9.1263 66.6925 8.98242 66.5874 8.84961C66.4878 8.7168 66.3356 8.58398 66.1309 8.45117C65.9261 8.31283 65.6522 8.16895 65.3091 8.01953C64.8774 7.84245 64.4541 7.64323 64.0391 7.42188C63.624 7.19499 63.2505 6.93213 62.9185 6.6333C62.592 6.32894 62.3291 5.97477 62.1299 5.5708C61.9307 5.1613 61.8311 4.68538 61.8311 4.14307C61.8311 3.62288 61.9307 3.15527 62.1299 2.74023C62.3346 2.31966 62.6141 1.96273 62.9683 1.66943C63.328 1.37061 63.7513 1.14372 64.2383 0.98877C64.7253 0.828288 65.2565 0.748047 65.832 0.748047C66.5957 0.748047 67.2681 0.902995 67.8491 1.21289C68.4357 1.51725 68.8923 1.95166 69.2188 2.51611C69.5508 3.07503 69.7168 3.73633 69.7168 4.5H66.8862C66.8862 4.19564 66.8475 3.92725 66.77 3.69482C66.6925 3.4624 66.5708 3.27979 66.4048 3.14697C66.2443 3.01416 66.0312 2.94775 65.7656 2.94775C65.5277 2.94775 65.3257 3.00309 65.1597 3.11377C64.9992 3.22445 64.8774 3.37386 64.7944 3.56201C64.7114 3.74463 64.6699 3.94661 64.6699 4.16797C64.6699 4.35059 64.7114 4.5166 64.7944 4.66602C64.8774 4.8099 64.9909 4.94548 65.1348 5.07275C65.2842 5.20003 65.4557 5.32178 65.6494 5.43799C65.8486 5.5542 66.0617 5.66764 66.2886 5.77832C66.8364 5.98307 67.3206 6.21273 67.7412 6.46729C68.1673 6.71631 68.5243 7.0013 68.812 7.32227C69.0998 7.6377 69.3156 7.9974 69.4595 8.40137C69.6089 8.80534 69.6836 9.26188 69.6836 9.771C69.6836 10.3133 69.5951 10.7948 69.418 11.2153C69.2464 11.6359 68.9946 11.9928 68.6626 12.2861C68.3306 12.5739 67.9294 12.7925 67.459 12.9419C66.9941 13.0913 66.4684 13.166 65.8818 13.166C65.3451 13.166 64.8166 13.0885 64.2964 12.9336C63.7817 12.7731 63.3141 12.5296 62.8936 12.2031C62.4785 11.8711 62.1465 11.4478 61.8975 10.9331C61.6484 10.4129 61.5239 9.7959 61.5239 9.08203H64.3794C64.3794 9.4362 64.4071 9.73503 64.4624 9.97852C64.5177 10.222 64.6035 10.4185 64.7197 10.5679C64.8415 10.7118 64.9964 10.8169 65.1846 10.8833C65.3727 10.9442 65.6051 10.9746 65.8818 10.9746C66.1364 10.9746 66.3328 10.922 66.4712 10.8169C66.6151 10.7062 66.7147 10.5623 66.77 10.3853C66.8254 10.2026 66.853 10.0034 66.853 9.7876ZM76.2163 9.7876C76.2163 9.59945 76.1969 9.43066 76.1582 9.28125C76.125 9.1263 76.0558 8.98242 75.9507 8.84961C75.8511 8.7168 75.6989 8.58398 75.4941 8.45117C75.2894 8.31283 75.0155 8.16895 74.6724 8.01953C74.2407 7.84245 73.8174 7.64323 73.4023 7.42188C72.9873 7.19499 72.6138 6.93213 72.2817 6.6333C71.9552 6.32894 71.6924 5.97477 71.4932 5.5708C71.2939 5.1613 71.1943 4.68538 71.1943 4.14307C71.1943 3.62288 71.2939 3.15527 71.4932 2.74023C71.6979 2.31966 71.9774 1.96273 72.3315 1.66943C72.6912 1.37061 73.1146 1.14372 73.6016 0.98877C74.0885 0.828288 74.6198 0.748047 75.1953 0.748047C75.959 0.748047 76.6313 0.902995 77.2124 1.21289C77.799 1.51725 78.2555 1.95166 78.582 2.51611C78.9141 3.07503 79.0801 3.73633 79.0801 4.5H76.2495C76.2495 4.19564 76.2108 3.92725 76.1333 3.69482C76.0558 3.4624 75.9341 3.27979 75.7681 3.14697C75.6076 3.01416 75.3945 2.94775 75.1289 2.94775C74.891 2.94775 74.689 3.00309 74.5229 3.11377C74.3625 3.22445 74.2407 3.37386 74.1577 3.56201C74.0747 3.74463 74.0332 3.94661 74.0332 4.16797C74.0332 4.35059 74.0747 4.5166 74.1577 4.66602C74.2407 4.8099 74.3542 4.94548 74.498 5.07275C74.6475 5.20003 74.819 5.32178 75.0127 5.43799C75.2119 5.5542 75.425 5.66764 75.6519 5.77832C76.1997 5.98307 76.6839 6.21273 77.1045 6.46729C77.5306 6.71631 77.8875 7.0013 78.1753 7.32227C78.4631 7.6377 78.6789 7.9974 78.8228 8.40137C78.9722 8.80534 79.0469 9.26188 79.0469 9.771C79.0469 10.3133 78.9583 10.7948 78.7812 11.2153C78.6097 11.6359 78.3579 11.9928 78.0259 12.2861C77.6938 12.5739 77.2926 12.7925 76.8223 12.9419C76.3574 13.0913 75.8317 13.166 75.2451 13.166C74.7083 13.166 74.1799 13.0885 73.6597 12.9336C73.145 12.7731 72.6774 12.5296 72.2568 12.2031C71.8418 11.8711 71.5098 11.4478 71.2607 10.9331C71.0117 10.4129 70.8872 9.7959 70.8872 9.08203H73.7427C73.7427 9.4362 73.7703 9.73503 73.8257 9.97852C73.881 10.222 73.9668 10.4185 74.083 10.5679C74.2048 10.7118 74.3597 10.8169 74.5479 10.8833C74.736 10.9442 74.9684 10.9746 75.2451 10.9746C75.4997 10.9746 75.6961 10.922 75.8345 10.8169C75.9784 10.7062 76.078 10.5623 76.1333 10.3853C76.1886 10.2026 76.2163 10.0034 76.2163 9.7876Z" fill="white"/>
</svg>
